# xmcd CD database file
#
# Track frame offsets:
#	150
#	16214
#	33694
#	46924
#	65932
#	79740
#	96206
#	110976
#	125950
#	137403
#	159209
#	171401
#	187946
#	198520
#	217401
#	232111
#	253779
#	278208
#	292248
#	303208
#
# Disc length: 4211 seconds
#
# Revision: 0
# Processed by: cddbd v1.5.2PL0 Copyright (c) Steve Scherf et al.
# Submitted via: CDex 1.51
#
DISCID=3c107114
DTITLE=鳳飛飛 - 鐳射唱片珍藏系列 Vol.6
DYEAR=1900
DGENRE=Blues
TTITLE0=草原之夜
TTITLE1=幾度花落時
TTITLE2=我是一只畫眉鳥
TTITLE3=情人的眼淚
TTITLE4=遙遠寄相思
TTITLE5=藍與黑
TTITLE6=秦淮河畔
TTITLE7=夜來香
TTITLE8=晚霞
TTITLE9=秋水伊人
TTITLE10=茶葉青
TTITLE11=蘋果花
TTITLE12=小時候
TTITLE13=蘭閨寂寞
TTITLE14=夢中人
TTITLE15=蘇州河邊
TTITLE16=嘆十聲
TTITLE17=苦酒滿杯
TTITLE18=少年的我
TTITLE19=今宵多珍重
EXTD=
EXTT0=
EXTT1=
EXTT2=
EXTT3=
EXTT4=
EXTT5=
EXTT6=
EXTT7=
EXTT8=
EXTT9=
EXTT10=
EXTT11=
EXTT12=
EXTT13=
EXTT14=
EXTT15=
EXTT16=
EXTT17=
EXTT18=
EXTT19=
PLAYORDER=
